<svg width="1024" height="1024" viewBox="0 0 1024 1024" fill="none" xmlns="http://www.w3.org/2000/svg">
<rect width="1024" height="1024" rx="240" fill="#0A0A0A"/>
<path d="M285.098 649V381H340.598L342.598 442.5L337.098 441C341.098 419 347.764 402.5 357.098 391.5C366.764 380.5 378.764 375 393.098 375C409.764 375 421.764 380.667 429.098 392C436.764 403 441.931 420 444.598 443H437.098C440.764 420.667 448.098 403.833 459.098 392.5C470.098 380.833 483.598 375 499.598 375C519.264 375 533.764 382.167 543.098 396.5C552.431 410.5 557.098 432.667 557.098 463V649H493.598V476.5C493.598 459.167 491.931 447.5 488.598 441.5C485.598 435.5 480.764 432.5 474.098 432.5C469.431 432.5 465.264 434 461.598 437C458.264 440 455.598 444.833 453.598 451.5C451.598 457.833 450.598 466.333 450.598 477V649H391.598V476.5C391.598 459.833 390.098 448.333 387.098 442C384.098 435.667 379.098 432.5 372.098 432.5C367.431 432.5 363.264 434 359.598 437C355.931 440 353.098 444.833 351.098 451.5C349.431 457.833 348.598 466.333 348.598 477V649H285.098Z" fill="#F5F5F5"/>
<path d="M628 683.5L750 321.5" stroke="#F97316" stroke-width="50"/>
</svg>
